<svg width="72" height="72" viewBox="0 0 72 72" fill="none" xmlns="http://www.w3.org/2000/svg">
<path d="M0 8.00512C0 3.58401 3.58402 0 8.00513 0H63.9949C68.416 0 72 3.58402 72 8.00513V63.9949C72 68.416 68.416 72 63.9949 72H8.00512C3.58401 72 0 68.416 0 63.9949V8.00512Z" fill="url(#paint0_linear_12050_112)"/>
<path d="M47.0983 29.0176L42.8593 29.7918C42.2647 29.9004 41.9486 30.569 42.2363 31.1095L45.9731 38.1294C46.6872 39.4709 45.9138 41.1318 44.4413 41.4189L25.2166 45.1684C22.4495 45.7081 20.0992 47.5539 18.8849 50.1409L14.4883 59.5081C14.1732 60.1794 14.7471 60.9285 15.4638 60.7813L50.4532 53.5952C56.2484 52.405 59.2972 45.8861 56.5501 40.559L51.807 31.3616C50.9081 29.6185 49.0023 28.6698 47.0983 29.0176Z" fill="#FBFBFF"/>
<path d="M24.9014 41.3825L29.1404 40.6082C29.735 40.4996 30.0511 39.831 29.7634 39.2905L26.0266 32.2706C25.3125 30.9291 26.0859 29.2683 27.5583 28.9811L46.783 25.2316C49.5501 24.692 51.9004 22.8461 53.1147 20.2591L57.5113 10.8919C57.8265 10.2206 57.2525 9.47153 56.5359 9.61872L21.5465 16.8048C15.7513 17.9951 12.7024 24.514 15.4495 29.841L20.1926 39.0384C21.0915 40.7815 22.9973 41.7302 24.9014 41.3825Z" fill="#FBFBFF"/>
<defs>
<linearGradient id="paint0_linear_12050_112" x1="72" y1="32" x2="15.0019" y2="60.8445" gradientUnits="userSpaceOnUse">
<stop stop-color="#9333EA"/>
<stop offset="1" stop-color="#3D7AFF"/>
</linearGradient>
</defs>
</svg>
